<svg xmlns="http://www.w3.org/2000/svg" version="1.1" xmlns:xlink="http://www.w3.org/1999/xlink" xmlns:svgjs="http://svgjs.dev/svgjs" width="100%" height="100%" viewBox="0 0 1000 600"><rect width="1000" height="600" x="0" y="0" fill="#00214d"/><g><rect width="333.3333333333333" height="333.3333333333333" rx="13.333333333333334" ry="13.333333333333334" y="181.37865478077532" fill="#4831d4" transform="matrix(0.7853909109409658,0,0,0.7853909109409658,0,26.64837857371039)" x="159.1564483642578"/><path d="M268.69774073592896 332.9097873644599L268.69774073592896 332.9097873644599Q288.0689760651968 335.08410969733694 300.3524853483332 347.0005255995979L300.3524853483332 347.0005255995979Q313.4831332027204 359.70760416835964 313.4831332027204 378.1752250216268L313.4831332027204 378.1752250216268L313.4831332027204 378.457604545377Q313.4831332027204 397.32055673189444 300.5501510149584 410.14058711015633L300.5501510149584 410.14058711015633Q287.5606929224464 423.0453313455433 268.8954064025541 423.0453313455433L268.8954064025541 423.0453313455433Q250.03245421603668 423.0453313455433 237.24066179014983 410.14058711015633L237.24066179014983 410.14058711015633Q224.1100139357627 396.840511541519 224.1100139357627 378.8811738310024L224.1100139357627 378.8811738310024L224.1100139357627 377.5822280217512L240.0079811229024 370.6356917374948L240.0079811229024 379.16355335475265Q240.0079811229024 391.0799692570137 248.5358427401603 399.41016520764634L248.5358427401603 399.41016520764634Q257.09194230979324 407.85331296777923 268.8954064025541 407.85331296777923L268.8954064025541 407.85331296777923Q280.8965361619402 407.85331296777923 289.33968392207305 399.41016520764634L289.33968392207305 399.41016520764634Q297.7828316822058 390.8823035903885 297.7828316822058 379.0788394976276L297.7828316822058 379.0788394976276Q297.7828316822058 366.6541404526161 289.6503013981983 358.91694150185896L289.6503013981983 358.91694150185896Q280.3035391620647 350.0784624084758 269.2907377358045 349.287799741975L269.2907377358045 349.287799741975Q250.42778554928705 347.7911882660987 239.69736364677712 337.0607663635887L239.69736364677712 337.0607663635887Q228.59984836339186 326.0479649373286 228.59984836339186 310.4606152263142L228.59984836339186 310.4606152263142Q228.59984836339186 294.78855165817464 239.49969798015195 283.97341589853966L239.49969798015195 283.97341589853966Q250.42778554928705 273.0453283294046 265.9304214031764 273.0453283294046L265.9304214031764 273.0453283294046Q281.6024849713159 273.0453283294046 292.41762073095083 283.97341589853966L292.41762073095083 283.97341589853966Q303.43042215721107 295.0709311819249 303.43042215721107 310.375901369189L303.43042215721107 310.375901369189L303.43042215721107 311.364229702315L287.5606929224464 318.5084316531966L287.5606929224464 310.6582808929393Q287.3630272558212 301.4244704663058 281.2071536380655 295.3815486580502L281.2071536380655 295.3815486580502Q274.74066254418454 289.0280093736693 265.9304214031764 289.0280093736693L265.9304214031764 289.0280093736693Q257.09194230979324 289.0280093736693 250.9360686920375 295.183882991425L250.9360686920375 295.183882991425Q244.58252940765664 301.62213613293096 244.58252940765664 310.4606152263142L244.58252940765664 310.4606152263142Q244.58252940765664 319.2990943196973 250.9360686920375 325.6526336040782L250.9360686920375 325.6526336040782Q256.89427664316804 331.61084155520865 268.69774073592896 332.9097873644599ZM383.37206533091 421.0686746792914L338.38900719749336 421.0686746792914L338.38900719749336 281.9685212799128L354.25873643225805 275.02198499565634L379.27756223653125 275.02198499565634Q394.8649119475456 275.02198499565634 405.7082856595557 285.8371207552914Q416.52342141919064 296.6804944673014 416.52342141919064 310.375901369189L416.52342141919064 310.375901369189Q416.52342141919064 325.8502992707034 405.9059513261808 336.6654350303384L405.9059513261808 336.6654350303384L405.2847163739302 337.2584320302139Q410.2545959919348 340.1387031724666 414.63147861006394 344.62853760009574L414.63147861006394 344.62853760009574Q427.5362228454509 357.61799569260774 427.5362228454509 376.28328221249996L427.5362228454509 376.28328221249996Q427.5362228454509 394.7509030657671 414.5185268005638 407.96626477727926L414.5185268005638 407.96626477727926Q401.726734374677 421.0686746792914 383.37206533091 421.0686746792914L383.37206533091 421.0686746792914ZM354.25873643225805 347.3958569328483L354.25873643225805 405.17070749215173L383.65444485466026 405.17070749215173Q395.4579089474212 405.17070749215173 403.90105670755395 396.6428458748938Q412.34420446768684 388.0867463052609 412.34420446768684 376.28328221249996L412.34420446768684 376.28328221249996Q412.34420446768684 364.28215245311395 403.90105670755395 355.83900469298106Q395.4579089474212 347.3958569328483 383.65444485466026 347.3958569328483L383.65444485466026 347.3958569328483L379.7858453792817 347.3958569328483L354.25873643225805 347.3958569328483ZM354.25873643225805 331.5261276980836L379.47522790315634 331.5261276980836Q389.61265280579073 331.41317588858345 394.5825324237953 326.24563060395377L394.5825324237953 326.24563060395377Q400.62545423205097 319.8920913195729 400.62545423205097 311.25127789281487L400.62545423205097 311.25127789281487Q400.62545423205097 310.7712327024394 400.62545423205097 310.1782357025638L400.62545423205097 310.1782357025638Q400.62545423205097 303.0340337516823 394.2719149476701 297.27349146717694L394.2719149476701 297.27349146717694Q387.720709996664 291.1176178494212 378.9951827127809 290.91995218279607L378.9951827127809 290.91995218279607L354.25873643225805 290.91995218279607L354.25873643225805 331.5261276980836Z " fill="#ccf381" transform="matrix(0.7853909109409658,0,0,0.7853909109409658,0,26.64837857371039)"/><path d="M620.4108449839757 332.9097873644599L620.4108449839757 332.9097873644599Q639.7820803132436 335.08410969733694 652.06558959638 347.0005255995979L652.06558959638 347.0005255995979Q665.1962374507671 359.70760416835964 665.1962374507671 378.1752250216268L665.1962374507671 378.1752250216268L665.1962374507671 378.457604545377Q665.1962374507671 397.32055673189444 652.2632552630052 410.14058711015633L652.2632552630052 410.14058711015633Q639.2737971704933 423.0453313455433 620.6085106506009 423.0453313455433L620.6085106506009 423.0453313455433Q601.7455584640834 423.0453313455433 588.9537660381966 410.14058711015633L588.9537660381966 410.14058711015633Q575.8231181838095 396.840511541519 575.8231181838095 378.8811738310024L575.8231181838095 378.8811738310024L575.8231181838095 377.5822280217512L591.7210853709491 370.6356917374948L591.7210853709491 379.16355335475265Q591.7210853709491 391.0799692570137 600.2489469882071 399.41016520764634L600.2489469882071 399.41016520764634Q608.80504655784 407.85331296777923 620.6085106506009 407.85331296777923L620.6085106506009 407.85331296777923Q632.6096404099869 407.85331296777923 641.0527881701198 399.41016520764634L641.0527881701198 399.41016520764634Q649.4959359302527 390.8823035903885 649.4959359302527 379.0788394976276L649.4959359302527 379.0788394976276Q649.4959359302527 366.6541404526161 641.3634056462452 358.91694150185896L641.3634056462452 358.91694150185896Q632.0166434101114 350.0784624084758 621.0038419838513 349.287799741975L621.0038419838513 349.287799741975Q602.1408897973338 347.7911882660987 591.4104678948239 337.0607663635887L591.4104678948239 337.0607663635887Q580.3129526114386 326.0479649373286 580.3129526114386 310.4606152263142L580.3129526114386 310.4606152263142Q580.3129526114386 294.78855165817464 591.2128022281987 283.97341589853966L591.2128022281987 283.97341589853966Q602.1408897973338 273.0453283294046 617.6435256512232 273.0453283294046L617.6435256512232 273.0453283294046Q633.3155892193627 273.0453283294046 644.1307249789977 283.97341589853966L644.1307249789977 283.97341589853966Q655.1435264052578 295.0709311819249 655.1435264052578 310.375901369189L655.1435264052578 310.375901369189L655.1435264052578 311.364229702315L639.2737971704933 318.5084316531966L639.2737971704933 310.6582808929393Q639.076131503868 301.4244704663058 632.9202578861123 295.3815486580502L632.9202578861123 295.3815486580502Q626.4537667922314 289.0280093736693 617.6435256512232 289.0280093736693L617.6435256512232 289.0280093736693Q608.80504655784 289.0280093736693 602.6491729400843 295.183882991425L602.6491729400843 295.183882991425Q596.2956336557033 301.62213613293096 596.2956336557033 310.4606152263142L596.2956336557033 310.4606152263142Q596.2956336557033 319.2990943196973 602.6491729400843 325.6526336040782L602.6491729400843 325.6526336040782Q608.6073808912148 331.61084155520865 620.4108449839757 332.9097873644599ZM713.2289944406865 393.84728858976626L713.2289944406865 393.84728858976626Q713.2289944406865 397.12289106526924 715.7986481068139 400.59615920739753L715.7986481068139 400.59615920739753Q720.5708620581933 406.9496984917784 730.9906664845779 406.9496984917784L730.9906664845779 406.9496984917784Q737.3442057689589 406.9496984917784 742.2293715298384 403.98471349240066L742.2293715298384 403.98471349240066L748.187579480969 418.9790662035395Q740.4221425778368 423.0453313455433 730.9906664845779 423.0453313455433L730.9906664845779 423.0453313455433Q716.1092655829392 423.0453313455433 704.5881810139286 412.1172437764082L704.5881810139286 412.1172437764082Q696.8509820631715 404.18237915902586 696.8509820631715 393.84728858976626L696.8509820631715 393.84728858976626Q696.8509820631715 393.45195725651587 696.8509820631715 393.05662592326547L696.8509820631715 393.05662592326547Q696.8509820631715 374.5042912128734 715.7986481068139 366.76709226211625L715.7986481068139 366.76709226211625L756.2071579554764 350.19141421797593Q756.2071579554764 340.75993812471717 749.9665704805956 334.3499229355862Q743.6977450533396 327.9399077464553 734.1815551029559 327.9399077464553L734.1815551029559 327.9399077464553Q725.8513591523232 327.9399077464553 719.4978198679424 334.2087331737111L719.4978198679424 334.2087331737111Q713.3419462501867 340.25165498196674 713.1442805835615 349.4854654086002L713.1442805835615 349.4854654086002L713.1442805835615 350.86912507497647L697.2463133964219 357.9286131687331L697.2463133964219 349.17484793247496Q697.2463133964219 335.28177536396214 709.1627292986828 322.5746967952004L709.1627292986828 322.5746967952004Q719.3001542013172 311.8442748926904 734.7745521028315 311.8442748926904Q750.2489500043458 311.8442748926904 761.1770375734808 322.7723624618255Q772.105125142616 333.70045003096067 772.105125142616 349.17484793247496L772.105125142616 349.17484793247496L772.105125142616 416.0987950612868L756.2071579554764 423.0453313455433L756.2071579554764 367.55775492861693L723.5640850099461 380.85783049725427Q713.2289944406865 385.7147583057587 713.2289944406865 393.84728858976626ZM827.3103220357922 416.0987950612868L811.4123548486524 423.0453313455433L811.4123548486524 279.99186461366094L827.3103220357922 273.0453283294046L827.3103220357922 318.5084316531966Q836.6288463195507 311.8442748926904 848.7429278884368 311.8442748926904L848.7429278884368 311.8442748926904Q864.2173257899511 311.8442748926904 875.2583651685865 322.7723624618255Q886.2711665948467 333.70045003096067 886.2711665948467 349.17484793247496L886.2711665948467 349.17484793247496L886.2711665948467 416.0987950612868L870.3731994077069 423.0453313455433L870.3731994077069 349.4854654086002Q870.1755337410817 340.25165498196674 864.0196601233259 334.2087331737111L864.0196601233259 334.2087331737111Q857.6661208389452 327.9399077464553 849.0253074121871 327.9399077464553L849.0253074121871 327.9399077464553Q839.8197349379287 327.9399077464553 833.5509095106728 334.2087331737111L833.5509095106728 334.2087331737111Q827.3950358929172 340.3363688390918 827.3103220357922 348.8924684087247L827.3103220357922 348.8924684087247L827.3103220357922 349.4854654086002L827.3103220357922 416.0987950612868ZM941.5610773451477 393.84728858976626L941.5610773451477 393.84728858976626Q941.5610773451477 397.12289106526924 944.1307310112751 400.59615920739753L944.1307310112751 400.59615920739753Q948.9029449626545 406.9496984917784 959.3227493890391 406.9496984917784L959.3227493890391 406.9496984917784Q965.6762886734201 406.9496984917784 970.5614544342997 403.98471349240066L970.5614544342997 403.98471349240066L976.51966238543 418.9790662035395Q968.7542254822978 423.0453313455433 959.3227493890391 423.0453313455433L959.3227493890391 423.0453313455433Q944.4413484874004 423.0453313455433 932.9202639183897 412.1172437764082L932.9202639183897 412.1172437764082Q925.1830649676327 404.18237915902586 925.1830649676327 393.84728858976626L925.1830649676327 393.84728858976626Q925.1830649676327 393.45195725651587 925.1830649676327 393.05662592326547L925.1830649676327 393.05662592326547Q925.1830649676327 374.5042912128734 944.1307310112751 366.76709226211625L944.1307310112751 366.76709226211625L984.5392408599374 350.19141421797593Q984.5392408599374 340.75993812471717 978.2986533850566 334.3499229355862Q972.0298279578009 327.9399077464553 962.5136380074172 327.9399077464553L962.5136380074172 327.9399077464553Q954.1834420567844 327.9399077464553 947.8299027724034 334.2087331737111L947.8299027724034 334.2087331737111Q941.6740291546479 340.25165498196674 941.4763634880227 349.4854654086002L941.4763634880227 349.4854654086002L941.4763634880227 350.86912507497647L925.5783963008829 357.9286131687331L925.5783963008829 349.17484793247496Q925.5783963008829 335.28177536396214 937.4948122031441 322.5746967952004L937.4948122031441 322.5746967952004Q947.6039991534034 311.8442748926904 963.1066350072925 311.8442748926904Q978.5810329088071 311.8442748926904 989.509120477942 322.7723624618255Q1000.4372080470772 333.70045003096067 1000.4372080470772 349.17484793247496L1000.4372080470772 349.17484793247496L1000.4372080470772 416.0987950612868L984.5392408599374 423.0453313455433L984.5392408599374 367.55775492861693L951.8961679144073 380.85783049725427Q941.5610773451477 385.7147583057587 941.5610773451477 393.84728858976626ZM1077.8656734593987 406.9496984917784L1077.8656734593987 406.9496984917784Q1086.704152552782 406.9496984917784 1092.4646948372874 401.0197284930229L1092.4646948372874 401.0197284930229Q1098.2252371217928 394.8638548752671 1098.2252371217928 387.2960836387602L1098.2252371217928 387.2960836387602Q1098.2252371217928 380.66016483062907 1092.4646948372874 374.7019568794985L1092.4646948372874 374.7019568794985Q1086.5912007432817 368.743748928368 1076.5667276501476 368.2354657856176L1076.5667276501476 368.2354657856176Q1064.254980414636 367.642468785742 1057.0260646066295 360.80888431098566L1057.0260646066295 360.80888431098566Q1049.966576512873 354.14472755047956 1048.5829168464966 341.74826645784304L1048.5829168464966 341.74826645784304Q1048.4699650369967 340.8446519818422 1048.4699650369967 339.9410375058414L1048.4699650369967 339.9410375058414Q1048.978248179747 329.12590174620635 1057.2237302732547 320.6827539860736L1057.2237302732547 320.6827539860736Q1065.6668780333875 311.8442748926904 1077.7527216498988 311.8442748926904L1077.7527216498988 311.8442748926904Q1090.5727520281607 311.8442748926904 1098.3099509789176 320.6827539860736L1098.3099509789176 320.6827539860736Q1103.4774962635474 326.64096193720405 1106.3577674058001 336.4677693637132L1106.3577674058001 336.4677693637132L1091.9564116945367 342.8213086480941Q1090.3750863615355 336.270103697088 1087.0994838860324 332.40150422170944L1087.0994838860324 332.40150422170944Q1083.428550077279 328.3352390797057 1077.6680077927736 328.3352390797057L1077.6680077927736 328.3352390797057Q1072.2180829843937 328.3352390797057 1068.1235798900148 332.40150422170944L1068.1235798900148 332.40150422170944Q1064.3679322241364 336.18538983996297 1064.3679322241364 340.95760379134236L1064.3679322241364 340.95760379134236Q1064.3679322241364 341.15526945796756 1064.3679322241364 341.4376489817178L1064.3679322241364 341.4376489817178Q1064.3679322241364 346.2098629330972 1067.9259142233896 349.6831310752254L1067.9259142233896 349.6831310752254Q1071.2015166988926 352.9587335507285 1077.4703421261484 353.6646823601041L1077.4703421261484 353.6646823601041Q1094.7519689796645 355.64133902635587 1103.9857794062978 364.28215245311395L1103.9857794062978 364.28215245311395Q1114.094966356557 373.99600807012285 1114.094966356557 388.0020324481358L1114.094966356557 388.0020324481358L1114.094966356557 388.31264992426117Q1113.8973006899323 401.6127254928984 1104.2681589300482 412.1172437764082L1104.2681589300482 412.1172437764082Q1094.158971979789 423.0453313455433 1077.8656734593987 423.0453313455433L1077.8656734593987 423.0453313455433Q1062.2783237483845 423.0453313455433 1052.25385065525 412.3149094430333L1052.25385065525 412.3149094430333Q1041.0433835623649 400.51144535027237 1040.3374347529889 385.7147583057587L1040.3374347529889 385.7147583057587L1040.252720895864 384.72642997263284L1056.1224501306287 377.7798936883764L1056.2354019401287 385.43237878200847Q1056.320115797254 394.66618920864204 1062.4759894150097 400.70911101689757L1062.4759894150097 400.70911101689757Q1068.8295286993903 406.9496984917784 1077.8656734593987 406.9496984917784Z " fill="#4831d4" transform="matrix(0.7853909109409658,0,0,0.7853909109409658,0,26.64837857371039)"/></g></svg>